<?xml version="1.0"?>
<svg xmlns="http://www.w3.org/2000/svg" xmlns:xlink="http://www.w3.org/1999/xlink" version="1.1" id="Capa_1" x="0px" y="0px" viewBox="0 0 511.734 511.734" style="enable-background:new 0 0 511.734 511.734;" xml:space="preserve" width="512px" height="512px" class=""><g><path style="fill:#020202" d="M351.826,123.904c0,6.638-0.641,13.11-1.922,19.35c-8.957,43.735-47.732,76.601-94.029,76.601  c-46.375,0-85.081-32.865-94.029-76.601c-1.281-6.239-1.921-12.712-1.921-19.35v-21.988c0.242,11.752,2.639,23.589,7.355,34.779  c3.037,7.597,7.277,14.875,12.47,21.668c16.156,21.028,39.261,33.506,63.569,36.699c8.316,1.125,16.71,1.125,25.026,0  c16.232-2.077,32.061-8.394,45.898-19.029c6.793-5.193,12.789-11.189,17.67-17.749c5.277-6.715,9.432-13.993,12.555-21.668h0.078  c4.717-11.518,7.201-23.832,7.279-36.223L351.826,123.904L351.826,123.904z" data-original="#5C9EFF" class="active-path" data-old_color="#5C9EFF"/><g>
	<path style="fill:#020202" d="M319.842,459.246c-11.197,10.08-24.869,17.592-39.979,21.434c-7.676,1.999-15.75,3.038-23.988,3.038   c-8.316,0-16.312-1.039-23.988-3.038c-15.117-3.842-28.704-11.275-39.979-21.348c-19.67-17.593-31.983-43.104-31.983-71.564v23.987   c0,28.384,12.313,53.894,31.905,71.564c11.189,9.995,24.862,17.507,40.057,21.349c7.676,1.998,15.671,3.037,23.988,3.037   c8.238,0,16.312-1.039,23.988-3.037c15.109-3.842,28.781-11.354,39.979-21.435c19.67-17.585,31.984-43.095,31.984-71.479v-23.987   C351.826,416.151,339.512,441.661,319.842,459.246z" data-original="#94C1FF" class="" data-old_color="#94C1FF"/>
	<polygon style="fill:#020202" points="263.871,347.788 263.871,427.746 247.879,427.746 247.879,359.782  " data-original="#94C1FF" class="" data-old_color="#94C1FF"/>
</g><g>
	<path style="fill:#020202" d="M191.909,459.332c-19.67-17.593-31.983-43.104-31.983-71.564c0-6.638,0.64-13.118,1.921-19.35   c8.948-43.657,47.655-76.601,94.029-76.601c46.296,0,85.072,32.943,94.029,76.601c1.281,6.231,1.922,12.712,1.922,19.35   c0,28.384-12.314,53.894-31.984,71.479c-11.197,10.08-24.869,17.592-39.979,21.434c-7.676,1.999-15.75,3.038-23.988,3.038   c-8.316,0-16.312-1.039-23.988-3.038C216.77,476.838,203.184,469.404,191.909,459.332z M263.871,427.746v-79.958l-15.992,11.994   v67.964L263.871,427.746L263.871,427.746z" data-original="#D7E9FF" class="" data-old_color="#D7E9FF"/>
	<path style="fill:#020202" d="M351.826,100.393c-0.078,12.392-2.562,24.706-7.279,36.223h-0.078l-14.711-6.075v-0.086   c3.912-9.354,6.076-19.748,6.076-30.539c0-10.877-2.164-21.192-6.076-30.625l14.711-6.075h0.078   c4.881,11.83,7.279,24.308,7.279,36.7C351.826,100.073,351.826,100.237,351.826,100.393z" data-original="#D7E9FF" class="" data-old_color="#D7E9FF"/>
	<path style="fill:#020202" d="M314.244,176.034c-13.838,10.635-29.666,16.952-45.898,19.029l-2.078-15.827h0.078   c10.074-1.359,20.154-4.639,29.508-10.073c9.355-5.442,17.273-12.478,23.426-20.552l12.635,9.675   C327.033,164.844,321.037,170.841,314.244,176.034z" data-original="#D7E9FF" class="" data-old_color="#D7E9FF"/>
	<path style="fill:#020202" d="M215.896,169.162c9.354,5.435,19.428,8.714,29.5,10.073l-2.077,15.827   c-24.308-3.193-47.413-15.671-63.569-36.699l12.634-9.753l0.078,0.078C198.623,156.763,206.541,163.805,215.896,169.162z" data-original="#D7E9FF" class="" data-old_color="#D7E9FF"/>
</g><path style="fill:#E6E9ED;" d="M175.916,99.917c0,10.869,2.155,21.185,6.075,30.625l-14.711,6.153  c-4.716-11.19-7.113-23.027-7.355-34.779c-0.32-13.274,2.155-26.385,7.277-38.699l14.789,6.153  C177.993,78.803,175.916,89.118,175.916,99.917z" data-original="#E6E9ED" class=""/><g>
	<path style="fill:#020202" d="M245.396,20.677h-0.078c-10.072,1.281-20.067,4.639-29.422,9.995   c-9.44,5.435-17.272,12.47-23.511,20.552l-12.634-9.675c4.958-6.559,10.877-12.478,17.671-17.756   c13.836-10.635,29.664-16.866,45.898-18.951L245.396,20.677z" data-original="#D7E9FF" class="" data-old_color="#D7E9FF"/>
	<path style="fill:#020202" d="M331.992,41.549l-12.713,9.675c-6.238-8.082-14.07-15.117-23.426-20.552   c-9.439-5.435-19.434-8.714-29.586-10.073l2.078-15.757C292.652,8.043,315.844,20.513,331.992,41.549z" data-original="#D7E9FF" class="" data-old_color="#D7E9FF"/>
</g><path style="fill:#020202" d="M331.992,41.549c5.199,6.793,9.439,14.071,12.555,21.668h-0.078l-14.711,6.075  c3.912,9.433,6.076,19.748,6.076,30.625c0,10.791-2.164,21.185-6.076,30.539v0.086l14.711,6.075  c-3.123,7.675-7.277,14.953-12.555,21.668l-12.635-9.675c-6.152,8.074-14.07,15.109-23.426,20.552  c-9.354,5.435-19.434,8.714-29.508,10.073h-0.078l2.078,15.827c-8.316,1.125-16.71,1.125-25.026,0l2.077-15.827  c-10.072-1.359-20.146-4.639-29.5-10.073c-9.354-5.356-17.272-12.399-23.433-20.474l-0.078-0.078l-12.634,9.753  c-5.192-6.793-9.433-14.071-12.47-21.668l14.711-6.153c-3.92-9.44-6.075-19.756-6.075-30.625c0-10.799,2.077-21.114,6.075-30.547  l-14.789-6.153c3.115-7.676,7.355-14.953,12.548-21.668l12.634,9.675c6.239-8.082,14.071-15.117,23.511-20.552  c9.354-5.356,19.35-8.714,29.422-9.995h0.078l-2.077-15.835c8.316-1.117,16.71-1.117,25.026,0l-2.078,15.756  c10.152,1.359,20.146,4.639,29.586,10.073c9.355,5.435,17.188,12.47,23.426,20.552L331.992,41.549z M277.863,111.513l21.988-21.435  l-30.383-4.396l-13.593-27.587L242.28,85.682l-30.383,4.396l21.989,21.435l-5.201,30.305l27.189-14.313l27.181,14.313  L277.863,111.513z" data-original="#94C1FF" class="" data-old_color="#94C1FF"/><g>
	<polygon style="fill:#020202" points="299.851,90.078 277.863,111.513 283.056,141.817 255.875,127.504 228.686,141.817    233.887,111.513 211.898,90.078 242.281,85.682 255.875,58.095 269.469,85.682  " data-original="#D7E9FF" class="" data-old_color="#D7E9FF"/>
	<path style="fill:#020202" d="M181.039,130.94c-2.452-7.192-3.998-14.782-4.669-22.629c-0.273-2.6-0.414-5.248-0.43-7.917   c0-0.148-0.023-0.289-0.023-0.438c0-0.008,0-0.016,0-0.016c0-0.008,0-0.016,0-0.023c0-2.717,0.133-5.411,0.398-8.066   c0.305-3.811,0.773-7.582,1.522-11.244c0.812-3.975,1.952-7.832,3.241-11.619l-13.836-5.755c-0.07,0.172-0.156,0.343-0.227,0.515   c-2.335,5.708-4.092,11.588-5.278,17.577c-0.367,1.858-0.602,3.771-0.859,5.677c-0.172,1.249-0.382,2.491-0.5,3.748   c-0.203,2.132-0.257,4.31-0.32,6.489c-0.031,1.132-0.109,2.256-0.094,3.396c0.023,3.225,0.18,6.418,0.515,9.558   c0.008,0.109,0.008,0.219,0.016,0.328c0.351,3.202,0.89,6.341,1.546,9.44c0.351,1.64,0.827,3.256,1.265,4.881   c0.352,1.327,0.687,2.662,1.093,3.966c0.734,2.288,1.569,4.56,2.491,6.809c0.141,0.352,0.273,0.71,0.414,1.07L181.039,130.94z" data-original="#D7E9FF" class="" data-old_color="#D7E9FF"/>
</g><g>
	<path style="fill:#FFFFFF" d="M255.867,487.746c-55.112,0-99.948-44.836-99.948-99.947c0-55.112,44.836-99.948,99.948-99.948   c55.111,0,99.947,44.836,99.947,99.948C355.814,442.91,310.978,487.746,255.867,487.746z M255.867,295.846   c-50.7,0-91.952,41.252-91.952,91.952s41.252,91.953,91.952,91.953c50.701,0,91.953-41.252,91.953-91.952   S306.568,295.846,255.867,295.846z" data-original="#116FFF" class="" data-old_color="#BA68C8"/>
	<path style="fill:#FFFFFF" d="M255.867,511.734c-55.112,0-99.948-44.836-99.948-99.948c0-2.21,1.788-3.998,3.998-3.998   c2.209,0,3.998,1.788,3.998,3.998c0,50.7,41.252,91.952,91.952,91.952c50.701,0,91.953-41.252,91.953-91.952   c0-2.21,1.787-3.998,3.998-3.998c2.209,0,3.996,1.788,3.996,3.998C355.814,466.898,310.978,511.734,255.867,511.734z" data-original="#116FFF" class="" data-old_color="#BA68C8"/>
	<path style="fill:#FFFFFF" d="M263.863,431.775c-2.209,0-3.998-1.788-3.998-3.998v-79.958c0-2.21,1.789-3.998,3.998-3.998   s3.998,1.788,3.998,3.998v79.958C267.861,429.987,266.072,431.775,263.863,431.775z" data-original="#116FFF" class="" data-old_color="#BA68C8"/>
	<path style="fill:#FFFFFF" d="M247.871,431.775c-2.21,0-3.998-1.788-3.998-3.998v-67.964c0-2.21,1.788-3.998,3.998-3.998   s3.998,1.788,3.998,3.998v67.964C251.869,429.987,250.081,431.775,247.871,431.775z" data-original="#116FFF" class="" data-old_color="#BA68C8"/>
	<path style="fill:#FFFFFF" d="M231.88,375.805c-1.21,0-2.413-0.555-3.202-1.601c-1.319-1.765-0.96-4.271,0.805-5.599   l31.984-23.987c1.756-1.319,4.262-0.961,5.598,0.804c1.32,1.765,0.961,4.271-0.805,5.599l-31.983,23.987   C233.558,375.547,232.715,375.805,231.88,375.805z" data-original="#116FFF" class="" data-old_color="#BA68C8"/>
	<path style="fill:#FFFFFF" d="M279.855,431.775h-47.976c-2.209,0-3.998-1.788-3.998-3.998c0-2.209,1.789-3.998,3.998-3.998h47.976   c2.209,0,3.998,1.789,3.998,3.998C283.853,429.987,282.064,431.775,279.855,431.775z" data-original="#116FFF" class="" data-old_color="#BA68C8"/>
	<path style="fill:#FFFFFF" d="M159.917,415.784c-2.21,0-3.998-1.788-3.998-3.998v-23.987c0-2.21,1.788-3.998,3.998-3.998   c2.209,0,3.998,1.788,3.998,3.998v23.987C163.915,413.996,162.127,415.784,159.917,415.784z" data-original="#116FFF" class="" data-old_color="#BA68C8"/>
	<path style="fill:#FFFFFF" d="M351.818,415.784c-2.211,0-3.998-1.788-3.998-3.998v-23.987c0-2.21,1.787-3.998,3.998-3.998   c2.209,0,3.996,1.788,3.996,3.998v23.987C355.814,413.996,354.027,415.784,351.818,415.784z" data-original="#116FFF" class="" data-old_color="#BA68C8"/>
	<path style="fill:#FFFFFF" d="M191.901,487.286c-2.21,0-3.998-1.788-3.998-3.998v-23.987c0-2.21,1.788-3.998,3.998-3.998   c2.209,0,3.998,1.788,3.998,3.998v23.987C195.899,485.498,194.11,487.286,191.901,487.286z" data-original="#116FFF" class="" data-old_color="#BA68C8"/>
	<path style="fill:#FFFFFF" d="M319.834,487.286c-2.209,0-3.998-1.788-3.998-3.998v-23.987c0-2.21,1.789-3.998,3.998-3.998   s3.998,1.788,3.998,3.998v23.987C323.832,485.498,322.043,487.286,319.834,487.286z" data-original="#116FFF" class="" data-old_color="#BA68C8"/>
	<path style="fill:#FFFFFF" d="M231.88,508.704c-2.209,0-3.998-1.788-3.998-3.997v-23.988c0-2.209,1.789-3.998,3.998-3.998   s3.998,1.789,3.998,3.998v23.988C235.877,506.916,234.089,508.704,231.88,508.704z" data-original="#116FFF" class="" data-old_color="#BA68C8"/>
	<path style="fill:#FFFFFF" d="M279.855,508.704c-2.211,0-3.998-1.788-3.998-3.997v-23.988c0-2.209,1.787-3.998,3.998-3.998   c2.209,0,3.998,1.789,3.998,3.998v23.988C283.853,506.916,282.064,508.704,279.855,508.704z" data-original="#116FFF" class="" data-old_color="#BA68C8"/>
	<path style="fill:#FFFFFF" d="M192.416,55.268c-0.851,0-1.702-0.266-2.428-0.82c-1.757-1.343-2.085-3.85-0.75-5.606   c6.715-8.776,15.008-16.046,24.651-21.605c9.628-5.56,20.052-9.105,30.96-10.542c2.116-0.296,4.201,1.25,4.49,3.444   c0.281,2.194-1.257,4.201-3.443,4.49c-9.87,1.296-19.295,4.506-28.009,9.534c-8.73,5.036-16.226,11.604-22.293,19.537   C194.805,54.729,193.618,55.268,192.416,55.268z" data-original="#116FFF" class="" data-old_color="#BA68C8"/>
	<path style="fill:#FFFFFF" d="M255.867,223.884c-55.112,0-99.948-44.836-99.948-99.948c0-2.21,1.788-3.998,3.998-3.998   c2.209,0,3.998,1.788,3.998,3.998c0,50.7,41.252,91.952,91.952,91.952c50.701,0,91.953-41.252,91.953-91.952   c0-2.21,1.787-3.998,3.998-3.998c2.209,0,3.996,1.788,3.996,3.998C355.814,179.048,310.978,223.884,255.867,223.884z" data-original="#116FFF" class="" data-old_color="#BA68C8"/>
	<path style="fill:#FFFFFF" d="M159.917,127.933c-2.21,0-3.998-1.788-3.998-3.998V99.948c0-2.21,1.788-3.998,3.998-3.998   c2.209,0,3.998,1.788,3.998,3.998v23.987C163.915,126.145,162.127,127.933,159.917,127.933z" data-original="#116FFF" class="" data-old_color="#BA68C8"/>
	<path style="fill:#FFFFFF" d="M351.818,127.933c-2.211,0-3.998-1.788-3.998-3.998V99.948c0-2.21,1.787-3.998,3.998-3.998   c2.209,0,3.996,1.788,3.996,3.998v23.987C355.814,126.145,354.027,127.933,351.818,127.933z" data-original="#116FFF" class="" data-old_color="#BA68C8"/>
	<path style="fill:#FFFFFF" d="M245.427,24.651c-1.976,0-3.693-1.46-3.958-3.475L239.376,5.34   c-0.289-2.186,1.257-4.201,3.444-4.489c2.131-0.289,4.201,1.241,4.489,3.443l2.093,15.835c0.289,2.186-1.257,4.201-3.443,4.49   C245.779,24.643,245.607,24.651,245.427,24.651z" data-original="#116FFF" class="" data-old_color="#BA68C8"/>
	<path style="fill:#FFFFFF" d="M192.416,55.268c-0.851,0-1.71-0.273-2.436-0.828l-12.666-9.729   c-1.749-1.343-2.077-3.857-0.734-5.606c1.351-1.757,3.865-2.061,5.606-0.733l12.665,9.729c1.749,1.343,2.077,3.857,0.734,5.606   C194.797,54.729,193.611,55.268,192.416,55.268z" data-original="#116FFF" class="" data-old_color="#BA68C8"/>
	<path style="fill:#FFFFFF" d="M181.984,134.555c-1.562,0-3.053-0.929-3.693-2.459c-4.232-10.183-6.379-20.997-6.379-32.147   c0-11.158,2.139-21.949,6.364-32.085c0.851-2.046,3.209-2.982,5.231-2.155c2.038,0.852,2.999,3.194,2.155,5.232   c-3.818,9.151-5.755,18.912-5.755,29.008c0,10.088,1.944,19.873,5.771,29.071c0.844,2.038-0.117,4.38-2.155,5.232   C183.014,134.453,182.499,134.555,181.984,134.555z" data-original="#116FFF" class="" data-old_color="#BA68C8"/>
	<path style="fill:#FFFFFF" d="M181.984,73.345c-0.508,0-1.031-0.094-1.53-0.305l-14.758-6.114   c-2.038-0.843-3.007-3.186-2.163-5.224c0.851-2.038,3.201-3.014,5.224-2.163l14.758,6.114c2.038,0.844,3.007,3.186,2.163,5.224   C185.037,72.415,183.553,73.345,181.984,73.345z" data-original="#116FFF" class="" data-old_color="#BA68C8"/>
	<path style="fill:#FFFFFF" d="M167.226,140.677c-1.569,0-3.053-0.929-3.693-2.467c-0.844-2.045,0.125-4.38,2.163-5.224   l14.758-6.106c2.046-0.851,4.38,0.133,5.224,2.163c0.844,2.046-0.125,4.38-2.163,5.224l-14.758,6.106   C168.256,140.583,167.734,140.677,167.226,140.677z" data-original="#116FFF" class="" data-old_color="#BA68C8"/>
	<path style="fill:#FFFFFF" d="M245.443,183.241c-0.172,0-0.351-0.007-0.523-0.031c-10.909-1.421-21.348-4.975-31.023-10.542   c-9.667-5.583-17.944-12.837-24.612-21.566c-1.343-1.757-0.999-4.264,0.75-5.606c1.749-1.343,4.263-1.016,5.606,0.749   c6.02,7.895,13.508,14.446,22.246,19.498c8.761,5.044,18.209,8.253,28.063,9.534c2.194,0.289,3.732,2.296,3.451,4.482   C249.136,181.773,247.418,183.241,245.443,183.241z" data-original="#116FFF" class="" data-old_color="#BA68C8"/>
	<path style="fill:#FFFFFF" d="M179.75,162.353c-1.194,0-2.381-0.539-3.17-1.562c-1.343-1.757-1.015-4.263,0.734-5.606   l12.666-9.713c1.741-1.359,4.255-1.023,5.606,0.733c1.343,1.757,1.015,4.264-0.734,5.606l-12.665,9.714   C181.46,162.088,180.602,162.353,179.75,162.353z" data-original="#116FFF" class="" data-old_color="#BA68C8"/>
	<path style="fill:#FFFFFF" d="M243.366,199.068c-0.179,0-0.351-0.008-0.53-0.031c-2.187-0.289-3.725-2.295-3.444-4.49l2.077-15.82   c0.289-2.194,2.319-3.732,4.49-3.443c2.187,0.289,3.725,2.296,3.443,4.49l-2.077,15.82   C247.059,197.6,245.341,199.068,243.366,199.068z" data-original="#116FFF" class="" data-old_color="#BA68C8"/>
	<path style="fill:#FFFFFF" d="M266.353,183.218c-1.975,0-3.693-1.468-3.959-3.483c-0.281-2.186,1.266-4.193,3.451-4.482   c9.855-1.281,19.279-4.482,28.002-9.519c8.738-5.044,16.242-11.619,22.293-19.537c1.344-1.765,3.857-2.092,5.607-0.749   c1.756,1.343,2.084,3.85,0.748,5.606c-6.699,8.761-15,16.03-24.65,21.598c-9.645,5.575-20.061,9.113-30.969,10.534   C266.705,183.21,266.525,183.218,266.353,183.218z" data-original="#116FFF" class="" data-old_color="#BA68C8"/>
	<path style="fill:#FFFFFF" d="M268.385,199.076c-1.977,0-3.693-1.468-3.959-3.475l-2.078-15.843   c-0.281-2.194,1.258-4.201,3.443-4.49c2.117-0.281,4.201,1.257,4.49,3.443l2.078,15.843c0.281,2.194-1.258,4.201-3.443,4.49   C268.736,199.068,268.564,199.076,268.385,199.076z" data-original="#116FFF" class="" data-old_color="#BA68C8"/>
	<path style="fill:#FFFFFF" d="M332,162.346c-0.852,0-1.711-0.266-2.438-0.828l-12.664-9.722c-1.75-1.343-2.078-3.849-0.734-5.606   c1.352-1.749,3.857-2.092,5.607-0.733l12.664,9.721c1.75,1.343,2.078,3.85,0.734,5.606   C334.381,161.806,333.193,162.346,332,162.346z" data-original="#116FFF" class="" data-old_color="#BA68C8"/>
	<path style="fill:#FFFFFF" d="M329.765,134.5c-0.514,0-1.037-0.102-1.537-0.304c-2.039-0.852-2.998-3.194-2.156-5.232   c3.818-9.151,5.756-18.912,5.771-29.024c-0.016-10.081-1.961-19.865-5.771-29.071c-0.842-2.038,0.125-4.38,2.164-5.224   c2.053-0.858,4.381,0.133,5.223,2.163c4.217,10.183,6.365,20.989,6.381,32.132c-0.016,11.174-2.164,21.973-6.381,32.101   C332.82,133.579,331.328,134.5,329.765,134.5z" data-original="#116FFF" class="" data-old_color="#BA68C8"/>
	<path style="fill:#FFFFFF" d="M344.523,140.661c-0.514,0-1.029-0.094-1.529-0.304l-14.758-6.114   c-2.039-0.844-3.006-3.186-2.164-5.224c0.852-2.038,3.18-3.03,5.225-2.163l14.758,6.114c2.037,0.843,3.006,3.186,2.162,5.224   C347.578,139.732,346.094,140.661,344.523,140.661z" data-original="#116FFF" class="" data-old_color="#BA68C8"/>
	<path style="fill:#FFFFFF" d="M329.75,73.321c-1.568,0-3.053-0.929-3.693-2.467c-0.842-2.046,0.125-4.38,2.164-5.224l14.758-6.106   c2.045-0.859,4.381,0.133,5.223,2.163c0.844,2.046-0.123,4.381-2.162,5.224l-14.758,6.106   C330.781,73.227,330.258,73.321,329.75,73.321z" data-original="#116FFF" class="" data-old_color="#BA68C8"/>
	<path style="fill:#FFFFFF" d="M255.938,199.904c-31.375,0-60.305-14.259-79.373-39.113   c-16.257-21.176-23.285-47.413-19.794-73.883c3.49-26.463,17.077-49.99,38.253-66.247C212.64,7.144,233.66,0,255.805,0   c31.367,0,60.289,14.243,79.349,39.089c16.258,21.185,23.293,47.429,19.811,73.892c-3.49,26.479-17.078,50.005-38.27,66.263   C299.096,192.759,278.082,199.904,255.938,199.904z M255.805,7.996c-20.373,0-39.706,6.567-55.909,19.006   c-19.49,14.961-31.991,36.605-35.201,60.952c-3.209,24.347,3.256,48.491,18.209,67.965c17.545,22.871,44.165,35.989,73.033,35.989   c20.373,0,39.697-6.575,55.884-19.006c19.498-14.961,32.008-36.606,35.209-60.96c3.209-24.354-3.264-48.498-18.217-67.98   C311.275,21.098,284.664,7.996,255.805,7.996z" data-original="#116FFF" class="" data-old_color="#BA68C8"/>
	<path style="fill:#FFFFFF" d="M319.271,55.221c-1.203,0-2.389-0.539-3.178-1.57c-6.027-7.894-13.516-14.454-22.246-19.505   c-8.746-5.028-18.178-8.238-28.057-9.534c-2.186-0.289-3.725-2.296-3.443-4.49c0.289-2.187,2.336-3.717,4.49-3.444   c10.916,1.437,21.348,4.982,31,10.542c9.658,5.583,17.936,12.845,24.611,21.574c1.336,1.757,1.008,4.264-0.748,5.606   C320.974,54.956,320.123,55.221,319.271,55.221z" data-original="#116FFF" class="" data-old_color="#BA68C8"/>
	<path style="fill:#FFFFFF" d="M319.318,55.253c-1.203,0-2.389-0.539-3.17-1.57c-1.344-1.749-1.016-4.255,0.742-5.599l12.68-9.713   c1.75-1.351,4.264-1.023,5.6,0.741c1.344,1.75,1.016,4.256-0.742,5.599l-12.68,9.714C321.021,54.987,320.17,55.253,319.318,55.253z   " data-original="#116FFF" class="" data-old_color="#BA68C8"/>
	<path style="fill:#FFFFFF" d="M266.291,24.643c-0.18,0-0.359-0.008-0.539-0.031c-2.186-0.297-3.725-2.304-3.436-4.498l2.109-15.82   c0.297-2.187,2.334-3.74,4.498-3.436c2.186,0.296,3.725,2.303,3.436,4.497l-2.109,15.82   C269.976,23.183,268.26,24.643,266.291,24.643z" data-original="#116FFF" class="" data-old_color="#BA68C8"/>
	<path style="fill:#FFFFFF" d="M283.056,145.799c-0.641,0-1.273-0.148-1.859-0.46l-25.33-13.314l-25.315,13.313   c-1.343,0.718-2.975,0.593-4.208-0.305c-1.234-0.89-1.851-2.405-1.593-3.904l4.834-28.196l-20.482-19.958   c-1.093-1.062-1.483-2.655-1.015-4.1c0.469-1.452,1.718-2.507,3.225-2.726l28.313-4.115l12.658-25.659   c1.343-2.717,5.824-2.717,7.168,0l12.666,25.659l28.305,4.115c1.508,0.219,2.756,1.281,3.225,2.726   c0.469,1.444,0.078,3.037-1.014,4.1l-20.482,19.958l4.85,28.188c0.258,1.499-0.359,3.022-1.594,3.912   C284.711,145.542,283.885,145.799,283.056,145.799z M220.479,92.897l16.187,15.772c0.945,0.922,1.374,2.241,1.155,3.538   l-3.818,22.285l20.006-10.518c1.155-0.609,2.561-0.609,3.717,0l20.02,10.518l-3.834-22.277c-0.219-1.296,0.211-2.624,1.156-3.545   l16.188-15.772l-22.371-3.249c-1.297-0.195-2.43-1.007-3.008-2.187l-10.01-20.278l-10.003,20.278   c-0.578,1.179-1.71,1.991-3.006,2.187L220.479,92.897z" data-original="#116FFF" class="" data-old_color="#BA68C8"/>
	<path style="fill:#FFFFFF" d="M366.123,370.136c-1.023,0-2.047-0.391-2.828-1.171c-1.561-1.562-1.561-4.092,0-5.653   c28.689-28.673,44.494-66.825,44.494-107.413c0-40.768-15.93-79.053-44.859-107.788c-1.562-1.554-1.578-4.083-0.016-5.653   c1.545-1.569,4.074-1.569,5.652-0.016c30.445,30.25,47.217,70.542,47.217,113.457c0,42.728-16.631,82.879-46.834,113.066   C368.168,369.745,367.144,370.136,366.123,370.136z" data-original="#116FFF" class="" data-old_color="#BA68C8"/>
	<path style="fill:#FFFFFF" d="M145.94,370.479c-1.022,0-2.038-0.391-2.818-1.163c-30.43-30.242-47.179-70.519-47.171-113.418   c0-42.72,16.632-82.879,46.827-113.074c1.562-1.562,4.092-1.562,5.653,0s1.562,4.092,0,5.653   c-28.688,28.688-44.485,66.833-44.485,107.421c-0.008,40.752,15.906,79.021,44.813,107.748c1.562,1.555,1.569,4.084,0.016,5.654   C147.993,370.089,146.971,370.479,145.94,370.479z" data-original="#116FFF" class="" data-old_color="#BA68C8"/>
	<path style="fill:#FFFFFF" d="M143.933,167.913c-0.125,0-0.25-0.008-0.375-0.016c-2.194-0.203-3.818-2.147-3.615-4.35   l1.679-18.264c0.211-2.194,2.217-3.74,4.349-3.615c2.194,0.203,3.818,2.147,3.615,4.349l-1.679,18.264   C147.712,166.359,145.971,167.913,143.933,167.913z" data-original="#116FFF" class="" data-old_color="#BA68C8"/>
	<path style="fill:#FFFFFF" d="M127.926,152.624c-1.913,0-3.607-1.382-3.936-3.334c-0.367-2.179,1.101-4.24,3.279-4.607   l17.671-2.975c2.139-0.352,4.24,1.101,4.606,3.279c0.367,2.179-1.101,4.24-3.279,4.607l-17.67,2.975   C128.371,152.608,128.153,152.624,127.926,152.624z" data-original="#116FFF" class="" data-old_color="#BA68C8"/>
	<path style="fill:#FFFFFF" d="M366.131,370.136c-0.125,0-0.25-0.008-0.375-0.016c-2.203-0.203-3.818-2.147-3.615-4.349   l1.686-18.319c0.203-2.202,2.188-3.74,4.35-3.615c2.203,0.203,3.818,2.147,3.615,4.35l-1.686,18.318   C369.91,368.582,368.168,370.136,366.131,370.136z" data-original="#116FFF" class="" data-old_color="#BA68C8"/>
	<path style="fill:#FFFFFF" d="M366.115,370.136c-1.977,0-3.693-1.468-3.959-3.475c-0.289-2.194,1.256-4.201,3.443-4.49   l17.678-2.327c2.133-0.312,4.201,1.258,4.49,3.444c0.289,2.194-1.258,4.2-3.443,4.489l-17.678,2.327   C366.467,370.128,366.295,370.136,366.115,370.136z" data-original="#116FFF" class="" data-old_color="#BA68C8"/>
</g></g> </svg>
