<?xml version="1.0" encoding="iso-8859-1"?>
<!-- Generator: Adobe Illustrator 19.0.0, SVG Export Plug-In . SVG Version: 6.00 Build 0)  -->
<svg version="1.1" id="Capa_1" xmlns="http://www.w3.org/2000/svg" xmlns:xlink="http://www.w3.org/1999/xlink" x="0px" y="0px"
	 viewBox="0 0 511.738 511.738" style="enable-background:new 0 0 511.738 511.738;" xml:space="preserve">
<path style="fill:#94C1FF;" d="M320.774,69.017c0,0,85.878-11.912,66.122,114.901l-35.106-57.411c0,0-55.644,22.949-105.945,22.949
	c-50.364,0-105.379-22.949-105.379-22.949l-33.424,57.411C87.13-28.37,335.08,10.169,343.794,11.609
	C306.22,27.039,320.774,69.017,320.774,69.017z"/>
<path style="fill:#5C9EFF;" d="M320.774,69.017c0,0,59.548-10.475,52.629,92.838l13.493,22.062
	C406.652,57.105,320.774,69.017,320.774,69.017z"/>
<g>
	<path style="fill:#D7E9FF;" d="M301.223,8.099C228.978,6.432,92.046,24.025,107.042,183.918l15.035-25.826
		C123.502,32.274,231.173,9.509,301.223,8.099z"/>
	<path style="fill:#D7E9FF;" d="M386.896,183.918v15.992c0,91.55-86.674,167.916-139.927,167.916S107.042,291.46,107.042,199.91
		v-15.992l33.424-57.411c0,0,55.015,22.949,105.379,22.949c50.302,0,105.945-22.949,105.945-22.949L386.896,183.918z"/>
</g>
<path style="fill:#FFFFFF;" d="M123.034,199.91v-15.992l30.566-52.5c-8.179-2.857-13.134-4.911-13.134-4.911l-33.424,57.411v15.992
	c0,91.55,86.674,167.916,139.927,167.916c2.584,0,5.263-0.234,7.996-0.593C201.477,360.322,123.034,287.025,123.034,199.91z"/>
<path style="fill:#94C1FF;" d="M370.904,199.91v-15.992l-30.562-52.5c8.183-2.857,13.134-4.911,13.134-4.911l33.42,57.411v15.992
	c0,91.55-86.674,167.916-139.927,167.916c-2.584,0-5.263-0.234-7.996-0.593C292.461,360.322,370.904,287.025,370.904,199.91z"/>
<path style="fill:#5C9EFF;" d="M247.875,423.781c83.082,0,109.943-59.484,110.739-61.732c3.998,2.404,8.479,4.802,13.196,7.277
	c0,0-23.987,70.447-123.936,70.447c-99.952,0-123.939-70.447-123.939-70.447c4.716-2.476,9.198-4.873,13.196-7.277
	C137.928,364.375,163.681,423.781,247.875,423.781z"/>
<g>
	<path style="fill:#2287FF;" d="M371.81,369.326c-4.717-2.476-9.198-4.873-13.196-7.277c-0.687,1.936-6.497,11.931-7.574,13.227
		c2.343,1.359,12.087,5.389,14.461,6.677C369.983,374.503,371.81,369.326,371.81,369.326z"/>
	<path style="fill:#2287FF;" d="M351.04,375.275c-0.047-0.023-0.109-0.055-0.141-0.078
		C350.79,375.51,350.852,375.478,351.04,375.275z"/>
</g>
<g>
	<path style="fill:#94C1FF;" d="M123.935,369.326c4.716-2.476,9.198-4.873,13.196-7.277c0.687,1.936,6.512,11.931,7.59,13.227
		c-2.358,1.359-12.104,5.389-14.477,6.677C125.77,374.503,123.935,369.326,123.935,369.326z"/>
	<path style="fill:#94C1FF;" d="M144.722,375.275c0.031-0.023,0.109-0.055,0.141-0.078
		C144.972,375.51,144.893,375.478,144.722,375.275z"/>
</g>
<g style="opacity:0.4;">
	<path style="fill:#FFFFFF;" d="M19.989,463.761c0-31.983,15.992-44.055,47.976-55.971c14.82-5.497,40.275-15.344,62.327-25.768
		c-4.513-7.48-6.356-12.696-6.356-12.696c-23.824,12.079-54.925,24.151-71.963,30.468C19.989,411.71,3.998,423.781,3.998,455.765
		c0,31.982,0,47.975,0,47.975h15.991C19.989,496.033,19.989,482.798,19.989,463.761z"/>
</g>
<path style="fill:#D7E9FF;" d="M247.875,367.81c27.268,0,63.248-22.066,91.952-55.971v31.983c0,5.122,7.512,11.51,18.787,18.226
	c-0.796,2.248-27.657,61.732-110.739,61.732c-84.194,0-109.947-59.406-110.743-61.732c11.275-6.716,18.787-13.104,18.787-18.226
	v-31.983C184.627,345.744,220.608,367.81,247.875,367.81z"/>
<g style="opacity:0.2;">
	<path d="M247.875,367.81c-27.267,0-63.248-22.066-91.956-55.971v7.996c28.708,33.904,64.689,55.971,91.956,55.971
		c27.268,0,63.248-22.066,91.952-55.971v-7.996C311.123,345.744,275.142,367.81,247.875,367.81z"/>
</g>
<path style="fill:#FFFFFF;" d="M149.219,373.215c10.588-6.903,22.691-16.883,22.691-21.396v-15.023
	c-5.498-5.247-10.862-10.9-15.992-16.96v23.987c0,5.122-16.726,16.968-15.727,16.335
	C142.121,363.563,145.112,368.154,149.219,373.215z"/>
<g>
	<path style="fill:#94C1FF;" d="M355.491,360.111c-0.031,0.062-0.078,0.125-0.125,0.188c-1.874-1.437-15.43-11.479-15.43-16.101
		v-24.362c-5.122,6.06-10.495,11.744-15.991,16.991v15.367c0,4.45,11.759,14.188,22.238,21.083
		c-14.992,18.115-45.039,42.509-98.309,42.509c-69.14,0-98.828-40.011-107.683-55.628c-0.999,0.633-1.999,1.266-3.061,1.891
		c0.796,2.326,26.549,61.732,110.743,61.732c83.082,0,109.943-59.484,110.739-61.732C357.521,361.4,356.506,360.76,355.491,360.111z
		"/>
	<path style="fill:#94C1FF;" d="M391.8,391.799h31.141c-16.07-6.356-35.185-14.392-51.13-22.473c0,0-3.42,10.01-13.009,22.473H391.8
		z"/>
	<path style="fill:#94C1FF;" d="M283.856,447.769c0-4.053,0.452-7.988,1.265-11.799c-11.088,2.343-23.363,3.803-37.246,3.803
		c-99.952,0-123.939-70.447-123.939-70.447c-23.824,12.079-54.925,24.151-71.963,30.468C19.989,411.71,3.998,423.781,3.998,455.765
		c0,31.982,0,47.975,0,47.975h335.829C308.89,503.74,283.856,478.629,283.856,447.769z"/>
</g>
<path style="fill:#D7E9FF;" d="M19.989,463.761c0-31.983,15.992-44.055,47.976-55.971c14.82-5.497,40.271-15.344,62.327-25.768
	c-4.513-7.488-6.356-12.696-6.356-12.696c-23.824,12.079-54.925,24.151-71.963,30.468C19.989,411.71,3.998,423.781,3.998,455.765
	c0,31.982,0,47.975,0,47.975h15.991C19.989,496.033,19.989,482.798,19.989,463.761z"/>
<path style="fill:#5C9EFF;" d="M391.8,391.799h31.141c-16.07-6.356-35.185-14.392-51.13-22.473c0,0-1.843,5.216-6.355,12.696
	c7.121,3.365,14.602,6.652,21.957,9.776L391.8,391.799L391.8,391.799z"/>
<path style="fill:#94C1FF;" d="M227.885,215.882c0,4.396-3.592,7.996-7.996,7.996h-55.97c-4.389,0-7.996-3.6-7.996-7.996v-15.991
	c0-4.396,3.607-7.996,7.996-7.996h55.971c4.404,0,7.996,3.6,7.996,7.996v8.23L227.885,215.882L227.885,215.882z"/>
<g>
	<polygon style="fill:#D7E9FF;" points="175.069,223.878 191.623,223.878 200.196,191.894 183.642,191.894 	"/>
	<polygon style="fill:#D7E9FF;" points="195.902,223.878 200.181,223.878 208.755,191.894 204.475,191.894 	"/>
</g>
<path style="fill:#94C1FF;" d="M339.827,215.882c0,4.396-3.592,7.996-7.996,7.996H275.86c-4.388,0-7.996-3.6-7.996-7.996v-15.991
	c0-4.396,3.608-7.996,7.996-7.996h55.971c4.404,0,7.996,3.6,7.996,7.996v8.23V215.882z"/>
<g>
	<polygon style="fill:#D7E9FF;" points="287.011,223.878 303.564,223.878 312.139,191.894 295.584,191.894 	"/>
	<polygon style="fill:#D7E9FF;" points="307.844,223.878 312.123,223.878 320.696,191.894 316.418,191.894 	"/>
	<path style="fill:#D7E9FF;" d="M478.802,457.67c1.03,4.318-1.593,8.637-5.919,9.676c-4.232,1.038-8.558-1.602-9.589-5.92
		c-1.046-4.317,1.593-8.55,5.825-9.674h0.094C473.445,450.791,477.756,453.431,478.802,457.67z"/>
</g>
<g>
	<path style="fill:#3A3847;" d="M463.559,440.469c-5.513,0-10.291-3.787-11.604-9.207c-1.546-6.441,2.437-12.945,8.87-14.508
		c6.435-1.53,12.854,2.53,14.415,8.848c1.562,6.465-2.421,12.97-8.854,14.531C465.449,440.351,464.513,440.469,463.559,440.469z
		 M463.606,424.422c-0.297,0-0.608,0.039-0.905,0.109c-2.155,0.523-3.482,2.702-2.968,4.857c0.516,2.131,2.687,3.482,4.779,2.967
		c2.187-0.531,3.498-2.662,2.967-4.857C467.026,425.695,465.433,424.422,463.606,424.422z"/>
	<path style="fill:#3A3847;" d="M432.482,447.902c-5.544,0-10.323-3.787-11.619-9.206c-0.75-3.132-0.25-6.356,1.421-9.089
		c1.671-2.741,4.311-4.662,7.449-5.412c6.747-1.499,12.884,2.616,14.415,8.863c1.546,6.418-2.265,12.782-8.699,14.484
		c-0.172,0.047-0.344,0.078-0.531,0.102C434.122,447.816,433.294,447.902,432.482,447.902z M432.42,431.887
		c-0.281,0-0.578,0.031-0.875,0.094c-0.999,0.242-1.874,0.883-2.436,1.796c-0.562,0.914-0.734,1.991-0.469,3.046
		c0.516,2.123,2.686,3.475,4.747,2.975c0.078-0.023,0.172-0.039,0.25-0.055c2.046-0.672,3.232-2.732,2.733-4.794
		C435.933,433.176,434.278,431.887,432.42,431.887z"/>
</g>
<g>
	<path style="fill:#D7E9FF;" d="M447.693,465.103c1.046,4.318-1.594,8.637-5.919,9.676c-4.311,1.038-8.543-1.602-9.589-5.912
		c-1.047-4.325,1.593-8.636,5.919-9.682C442.414,458.232,446.662,460.872,447.693,465.103z"/>
	<path style="fill:#D7E9FF;" d="M471.368,426.554c1.03,4.318-1.593,8.636-5.919,9.675c-4.232,1.039-8.558-1.601-9.589-5.919
		c-1.046-4.317,1.593-8.558,5.825-9.675h0.094C466.012,419.675,470.322,422.313,471.368,426.554z"/>
	<path style="fill:#D7E9FF;" d="M440.26,433.987c1.046,4.318-1.594,8.636-5.919,9.675c-4.311,1.047-8.543-1.593-9.589-5.919
		c-1.047-4.31,1.593-8.636,5.919-9.667C434.98,427.108,439.228,429.748,440.26,433.987z"/>
</g>
<g>
	<path style="fill:#94C1FF;" d="M441.774,474.779c4.325-1.039,6.965-5.357,5.919-9.676c-1.031-4.231-5.279-6.871-9.589-5.918
		l31.015-7.434c-4.232,1.124-6.871,5.356-5.825,9.674c1.031,4.318,5.356,6.958,9.589,5.92L441.774,474.779z"/>
	<path style="fill:#94C1FF;" d="M455.845,430.325c1.047,4.311,5.278,6.95,9.604,5.919l-31.03,7.434
		c4.247-1.125,6.887-5.356,5.841-9.675c-1.031-4.239-5.357-6.879-9.589-5.919l31.093-7.441
		C457.453,421.689,454.814,426.008,455.845,430.325z"/>
	<path style="fill:#94C1FF;" d="M339.827,423.765c13.274,0,23.987,10.714,23.987,23.988c0,13.196-10.713,23.987-23.987,23.987
		s-23.987-10.791-23.987-23.987C315.84,434.479,326.553,423.765,339.827,423.765z"/>
</g>
<path style="fill:#D7E9FF;" d="M323.836,447.754c0-11.9,8.636-21.677,19.989-23.582c-1.296-0.219-2.624-0.406-3.998-0.406
	c-13.274,0-23.987,10.714-23.987,23.988c0,13.196,10.713,23.987,23.987,23.987c1.374,0,2.702-0.188,3.998-0.406
	C332.472,469.414,323.836,459.584,323.836,447.754z"/>
<g>
	<path style="fill:#5C9EFF;" d="M355.818,447.754c0-11.9-8.636-21.677-19.989-23.582c1.312-0.219,2.64-0.406,3.998-0.406
		c13.274,0,23.987,10.714,23.987,23.988c0,13.196-10.713,23.987-23.987,23.987c-1.358,0-2.687-0.188-3.998-0.406
		C347.182,469.414,355.818,459.584,355.818,447.754z"/>
	<path style="fill:#5C9EFF;" d="M434.419,443.678l31.03-7.434c4.311-1.047,6.949-5.356,5.919-9.683
		c-1.046-4.232-5.278-6.949-9.604-5.919l-31.093,7.441c-4.326,1.039-6.966,5.357-5.919,9.675c1.03,4.318,5.356,6.958,9.589,5.919
		h0.078V443.678z M469.119,451.752l-31.015,7.434c-4.326,1.046-6.966,5.356-5.919,9.682c1.046,4.311,5.278,6.95,9.589,5.912
		l31.108-7.434c4.326-1.039,6.949-5.357,5.919-9.676c-1.046-4.239-5.356-6.879-9.589-5.918H469.119z M339.827,471.741
		c13.274,0,23.987-10.791,23.987-23.987c0-13.274-10.713-23.988-23.987-23.988s-23.987,10.714-23.987,23.988
		C315.84,460.95,326.553,471.741,339.827,471.741z M412.601,487.732h-33.592c-10.072,9.839-23.909,15.992-39.183,15.992
		c-30.937,0-55.971-25.111-55.971-55.971c0-30.945,25.034-55.971,55.971-55.971h51.973h59.97c30.952,0,55.971,25.025,55.971,55.971
		c0,30.859-25.019,55.971-55.971,55.971C436.496,503.724,422.675,497.571,412.601,487.732z"/>
</g>
<path style="fill:#94C1FF;" d="M291.851,447.754c0-30.945,25.034-55.971,55.972-55.971h-7.996
	c-30.937,0-55.971,25.025-55.971,55.971c0,30.859,25.034,55.971,55.971,55.971c1.358,0,2.687-0.109,4.014-0.203
	C314.777,501.475,291.851,477.277,291.851,447.754z"/>
<path style="fill:#2287FF;" d="M499.744,447.754c0-30.945-25.019-55.971-55.971-55.971h7.996c30.952,0,55.971,25.025,55.971,55.971
	c0,30.859-25.019,55.971-55.971,55.971c-1.344,0-2.671-0.109-4.014-0.203C476.834,501.475,499.744,477.277,499.744,447.754z"/>
<g>
	<path style="fill:#116FFF;" d="M246.965,371.808c-55.522,0-143.929-78.678-143.929-171.91c0-2.21,1.788-3.998,3.998-3.998
		s3.998,1.788,3.998,3.998c0,88.898,83.495,163.914,135.933,163.914c52.429,0,135.917-75.016,135.917-163.914
		c0-2.21,1.796-3.998,3.998-3.998c2.218,0,3.998,1.788,3.998,3.998C390.879,293.131,302.487,371.808,246.965,371.808z"/>
	<path style="fill:#116FFF;" d="M107.034,187.904c-0.285,0-0.574-0.031-0.863-0.094c-1.695-0.375-2.956-1.8-3.12-3.533
		c-5.017-53.57,6.461-96.126,34.115-126.493C177.652,13.33,244.056,3.999,292.632,3.999c28.376,0,49.459,3.275,51.77,3.65
		c1.766,0.285,3.124,1.71,3.327,3.49c0.203,1.776-0.797,3.475-2.452,4.154c-28.595,11.768-23.94,40.229-21.566,49.506
		c0.812-0.035,1.749-0.062,2.779-0.062c11.369,0,32.796,2.768,48.662,21.301c17.413,20.349,22.691,53.484,15.68,98.484
		c-0.25,1.655-1.515,2.975-3.17,3.303c-1.625,0.359-3.312-0.406-4.186-1.835l-33.373-54.558
		c-12.65,4.9-60.016,22.012-104.278,22.012c-44.141,0-90.929-17.019-103.614-21.973l-31.722,54.444
		C109.763,187.166,108.435,187.904,107.034,187.904z M351.759,122.477c1.358,0,2.654,0.691,3.404,1.913l29.266,47.846
		c4.232-36.926-0.921-64.143-15.351-80.997c-13.79-16.101-32.593-18.506-42.588-18.506c-3.092,0-5.028,0.246-5.153,0.265
		c-1.937,0.262-3.701-0.862-4.326-2.65c-0.141-0.406-12.337-36.743,14.212-56.334c-9.059-0.965-22.629-2.019-38.59-2.019
		c-46.964,0-111.032,8.878-149.555,51.172c-23.847,26.189-34.908,62.307-32.952,107.487l26.912-46.19
		c1.015-1.737,3.135-2.444,4.997-1.679c0.543,0.227,54.858,22.664,103.79,22.664c48.979,0,103.856-22.441,104.403-22.668
		C350.727,122.575,351.243,122.477,351.759,122.477z"/>
	<path style="fill:#116FFF;" d="M291.851,507.738H3.998c-2.21,0-3.998-1.788-3.998-3.998v-47.975
		c0-34.318,17.776-47.468,50.575-59.72c98.503-36.816,101.346-50.755,101.346-52.223c0-2.21,1.788-3.998,3.998-3.998
		s3.998,1.788,3.998,3.998c0,5.442,0,19.888-106.542,59.719C22.629,415.02,7.996,425.765,7.996,455.765v43.977h283.855
		c2.203,0,3.998,1.788,3.998,3.998S294.055,507.738,291.851,507.738z"/>
	<path style="fill:#116FFF;" d="M379.807,377.243c-0.578,0-1.172-0.124-1.718-0.39c-37.466-17.921-42.26-27.064-42.26-33.03
		c0-2.21,1.78-3.998,3.998-3.998c2.202,0,3.998,1.788,3.998,3.998c0,1.296,1.812,8.644,37.715,25.815
		c1.983,0.952,2.826,3.342,1.874,5.332C382.726,376.408,381.306,377.243,379.807,377.243z"/>
	<path style="fill:#116FFF;" d="M155.919,347.821c-2.21,0-3.998-1.788-3.998-3.998v-26.837c0-2.211,1.788-3.998,3.998-3.998
		s3.998,1.787,3.998,3.998v26.837C159.917,346.033,158.129,347.821,155.919,347.821z"/>
	<path style="fill:#116FFF;" d="M339.827,347.821c-2.218,0-3.998-1.788-3.998-3.998v-28.86c0-2.209,1.78-3.997,3.998-3.997
		c2.202,0,3.998,1.788,3.998,3.997v28.86C343.825,346.033,342.029,347.821,339.827,347.821z"/>
	<path style="fill:#116FFF;" d="M247.871,443.771c-52.953,0-84.808-19.764-102.205-36.341
		c-18.982-18.092-25.256-36.091-25.514-36.848c-0.711-2.085,0.402-4.35,2.491-5.067c2.069-0.719,4.36,0.398,5.075,2.482
		c0.953,2.772,24.444,67.777,120.152,67.777c6.688,0,13.274-0.328,19.588-0.976c2.029-0.227,4.153,1.366,4.372,3.568
		c0.234,2.194-1.358,4.153-3.561,4.38C261.695,443.428,254.832,443.771,247.871,443.771z"/>
	<path style="fill:#116FFF;" d="M247.871,427.779c-88.083,0-114.288-63.756-114.515-64.396c-0.727-2.085,0.375-4.365,2.459-5.091
		c2.077-0.727,4.361,0.374,5.091,2.451c0.211,0.57,24.229,59.04,106.964,59.04c6.68,0,13.235-0.398,19.494-1.188
		c2.123-0.288,4.185,1.266,4.466,3.468c0.266,2.193-1.28,4.192-3.467,4.466C261.777,427.358,254.883,427.779,247.871,427.779z"/>
	<path style="fill:#116FFF;" d="M219.886,227.876h-55.971c-6.614,0-11.994-5.38-11.994-11.994v-15.991
		c0-6.614,5.38-11.994,11.994-11.994h55.971c6.613,0,11.994,5.38,11.994,11.994v15.991
		C231.879,222.496,226.499,227.876,219.886,227.876z M163.915,195.892c-2.206,0-3.998,1.792-3.998,3.998v15.991
		c0,2.206,1.792,3.998,3.998,3.998h55.971c2.206,0,3.998-1.792,3.998-3.998V199.89c0-2.206-1.792-3.998-3.998-3.998H163.915z"/>
	<path style="fill:#116FFF;" d="M331.831,227.876H275.86c-6.622,0-11.997-5.38-11.997-11.994v-15.991
		c0-6.614,5.375-11.994,11.997-11.994h55.971c6.606,0,11.994,5.38,11.994,11.994v15.991
		C343.825,222.496,338.437,227.876,331.831,227.876z M275.86,195.892c-2.202,0-3.998,1.792-3.998,3.998v15.991
		c0,2.206,1.796,3.998,3.998,3.998h55.971c2.202,0,3.998-1.792,3.998-3.998V199.89c0-2.206-1.796-3.998-3.998-3.998H275.86z"/>
	<path style="fill:#116FFF;" d="M267.864,212.126h-39.991c-2.209,0-3.998-1.788-3.998-3.998c0-2.209,1.788-3.998,3.998-3.998h39.991
		c2.202,0,3.998,1.788,3.998,3.998C271.862,210.338,270.066,212.126,267.864,212.126z"/>
	<path style="fill:#116FFF;" d="M451.769,395.797H339.827c-2.202,0-3.998-1.789-3.998-3.998c0-2.21,1.796-3.998,3.998-3.998h111.942
		c2.217,0,3.997,1.788,3.997,3.998C455.766,394.008,453.986,395.797,451.769,395.797z"/>
	<path style="fill:#116FFF;" d="M412.601,491.746h-33.592c-2.218,0-3.998-1.788-3.998-3.998c0-2.209,1.78-3.997,3.998-3.997h33.592
		c2.202,0,3.998,1.788,3.998,3.997C416.599,489.958,414.804,491.746,412.601,491.746z"/>
	<path style="fill:#116FFF;" d="M339.827,507.738c-33.062,0-59.969-26.9-59.969-59.969s26.907-59.969,59.969-59.969
		c2.218,0,3.998,1.788,3.998,3.998c0,2.209-1.78,3.998-3.998,3.998c-28.657,0-51.973,23.315-51.973,51.973
		c0,28.656,23.315,51.973,51.973,51.973c13.696,0,26.611-5.271,36.388-14.852c1.562-1.538,4.092-1.522,5.653,0.062
		c1.546,1.577,1.515,4.107-0.062,5.653C370.53,501.655,355.615,507.738,339.827,507.738z"/>
	<path style="fill:#116FFF;" d="M451.769,507.738c-15.789,0-30.688-6.083-41.963-17.132c-1.578-1.546-1.609-4.076-0.062-5.653
		c1.562-1.585,4.092-1.601,5.653-0.062c9.776,9.581,22.691,14.852,36.372,14.852c28.656,0,51.973-23.316,51.973-51.973
		c0-28.657-23.316-51.973-51.973-51.973c-2.203,0-3.998-1.789-3.998-3.998c0-2.21,1.795-3.998,3.998-3.998
		c33.076,0,59.969,26.9,59.969,59.969S484.846,507.738,451.769,507.738z"/>
	<path style="fill:#116FFF;" d="M339.827,475.755c-15.43,0-27.985-12.556-27.985-27.985s12.556-27.985,27.985-27.985
		s27.985,12.556,27.985,27.985S355.257,475.755,339.827,475.755z M339.827,427.779c-11.025,0-19.989,8.965-19.989,19.99
		s8.964,19.989,19.989,19.989s19.989-8.964,19.989-19.989S350.852,427.779,339.827,427.779z"/>
	<path style="fill:#116FFF;" d="M339.827,459.764c-2.202,0-3.998-1.789-3.998-3.998v-15.992c0-2.21,1.796-3.998,3.998-3.998
		c2.218,0,3.998,1.788,3.998,3.998v15.992C343.825,457.974,342.045,459.764,339.827,459.764z"/>
	<path style="fill:#116FFF;" d="M347.823,451.767h-16.397c-2.202,0-3.998-1.788-3.998-3.998s1.796-3.998,3.998-3.998h16.397
		c2.218,0,3.998,1.788,3.998,3.998S350.041,451.767,347.823,451.767z"/>
	<path style="fill:#116FFF;" d="M432.482,447.933c-5.56,0-10.354-3.787-11.65-9.214c-0.75-3.116-0.234-6.333,1.452-9.065
		c1.671-2.726,4.311-4.639,7.434-5.389c6.45-1.515,12.931,2.554,14.446,8.879c0.749,3.115,0.233,6.34-1.438,9.073
		c-1.687,2.725-4.326,4.638-7.449,5.38C434.372,447.816,433.434,447.933,432.482,447.933z M432.498,431.933
		c-0.312,0-0.625,0.039-0.922,0.109c-1.046,0.25-1.921,0.891-2.482,1.796c-0.562,0.906-0.734,1.983-0.484,3.022
		c0.516,2.115,2.654,3.506,4.825,2.959c1.047-0.25,1.921-0.883,2.483-1.788c0.547-0.913,0.719-1.983,0.469-3.03
		C435.965,433.199,434.356,431.933,432.498,431.933z"/>
	<path style="fill:#116FFF;" d="M463.591,440.5c-5.56,0-10.354-3.795-11.65-9.223c-0.749-3.107-0.233-6.324,1.452-9.057
		c1.672-2.726,4.311-4.639,7.434-5.389c6.341-1.499,12.932,2.538,14.446,8.879c1.53,6.426-2.452,12.907-8.87,14.453
		C465.48,440.383,464.528,440.5,463.591,440.5z M463.622,424.5c-0.312,0-0.624,0.031-0.937,0.109
		c-1.047,0.25-1.921,0.891-2.483,1.796c-0.562,0.906-0.734,1.983-0.484,3.022c0.5,2.115,2.655,3.498,4.826,2.959
		c2.14-0.516,3.467-2.678,2.951-4.818C467.057,425.765,465.465,424.5,463.622,424.5z"/>
	<path style="fill:#116FFF;" d="M439.916,479.042c-5.56,0-10.354-3.787-11.65-9.214c-1.53-6.426,2.452-12.907,8.886-14.453
		c6.403-1.516,12.946,2.545,14.446,8.886c0.749,3.108,0.234,6.325-1.438,9.058c-1.671,2.726-4.311,4.639-7.434,5.388
		C441.806,478.925,440.868,479.042,439.916,479.042z M439.947,463.035c-0.312,0-0.625,0.039-0.938,0.117
		c-2.14,0.515-3.467,2.678-2.967,4.817c0.516,2.116,2.654,3.514,4.825,2.96c1.031-0.25,1.921-0.891,2.483-1.797
		c0.547-0.905,0.719-1.982,0.469-3.021C443.398,464.3,441.806,463.035,439.947,463.035z"/>
	<path style="fill:#116FFF;" d="M471.04,471.6c-5.56,0-10.354-3.787-11.665-9.206c-0.75-3.115-0.234-6.34,1.451-9.073
		c1.672-2.726,4.311-4.639,7.435-5.38c6.262-1.5,12.931,2.529,14.445,8.878c1.546,6.427-2.437,12.907-8.87,14.453
		C472.914,471.491,471.977,471.6,471.04,471.6z M471.056,455.601c-0.312,0-0.624,0.039-0.937,0.117
		c-1.047,0.25-1.921,0.882-2.483,1.788c-0.562,0.913-0.734,1.983-0.484,3.029c0.5,2.108,2.718,3.443,4.826,2.96
		c2.14-0.516,3.467-2.679,2.951-4.818C474.507,456.866,472.898,455.601,471.056,455.601z"/>
	<path style="fill:#116FFF;" d="M430.64,432.152c-1.812,0-3.452-1.233-3.889-3.068c-0.516-2.147,0.812-4.303,2.967-4.818
		l31.108-7.434c2.156-0.547,4.295,0.812,4.811,2.96s-0.812,4.302-2.951,4.817l-31.109,7.434
		C431.264,432.121,430.951,432.152,430.64,432.152z"/>
	<path style="fill:#116FFF;" d="M434.356,447.707c-1.812,0-3.452-1.234-3.889-3.068c-0.516-2.148,0.812-4.303,2.967-4.818
		l31.109-7.434c2.155-0.555,4.294,0.812,4.81,2.959s-0.812,4.303-2.951,4.818l-31.109,7.434
		C434.98,447.676,434.668,447.707,434.356,447.707z"/>
	<path style="fill:#116FFF;" d="M438.073,463.262c-1.812,0-3.452-1.234-3.889-3.069c-0.516-2.147,0.812-4.302,2.967-4.817
		l31.109-7.434c2.155-0.539,4.294,0.812,4.81,2.959s-0.812,4.303-2.951,4.818l-31.109,7.434
		C438.697,463.23,438.385,463.262,438.073,463.262z"/>
	<path style="fill:#116FFF;" d="M441.79,478.815c-1.812,0-3.452-1.233-3.889-3.068c-0.516-2.147,0.812-4.303,2.967-4.817
		l31.109-7.434c2.155-0.547,4.294,0.812,4.81,2.959s-0.812,4.303-2.951,4.817l-31.109,7.434
		C442.414,478.784,442.101,478.815,441.79,478.815z"/>
	<path style="fill:#116FFF;" d="M387.803,467.759h-7.996c-2.202,0-3.998-1.788-3.998-3.998s1.796-3.997,3.998-3.997h7.996
		c2.217,0,3.997,1.787,3.997,3.997S390.019,467.759,387.803,467.759z"/>
	<path style="fill:#116FFF;" d="M411.79,467.759h-7.996c-2.202,0-3.998-1.788-3.998-3.998s1.796-3.997,3.998-3.997h7.996
		c2.218,0,3.997,1.787,3.997,3.997S414.008,467.759,411.79,467.759z"/>
	<path style="fill:#116FFF;" d="M395.798,387.801c-2.202,0-3.998-1.788-3.998-3.998c0-11.025,8.964-19.99,19.99-19.99
		c2.218,0,3.997,1.789,3.997,3.998c0,2.21-1.779,3.998-3.997,3.998c-6.606,0-11.994,5.381-11.994,11.994
		C399.796,386.013,398.015,387.801,395.798,387.801z"/>
	<path style="fill:#116FFF;" d="M419.785,371.808c-2.201,0-3.998-1.788-3.998-3.998c0-2.209,1.797-3.998,3.998-3.998
		c6.622,0,11.994-5.38,11.994-11.993c0-6.614-5.372-11.994-11.994-11.994c-2.201,0-3.998-1.788-3.998-3.997
		c0-2.211,1.797-3.998,3.998-3.998c11.025,0,19.99,8.964,19.99,19.989S430.81,371.808,419.785,371.808z"/>
	<path style="fill:#116FFF;" d="M419.785,371.808h-7.995c-2.202,0-3.998-1.788-3.998-3.998c0-2.209,1.796-3.998,3.998-3.998h7.995
		c2.218,0,3.998,1.789,3.998,3.998C423.783,370.02,422.003,371.808,419.785,371.808z"/>
	<path style="fill:#116FFF;" d="M419.769,339.825h-64.763c-2.202,0-3.998-1.788-3.998-3.997c0-2.211,1.796-3.998,3.998-3.998h64.763
		c2.218,0,3.998,1.787,3.998,3.998C423.767,338.037,421.987,339.825,419.769,339.825z"/>
</g>
<g>
</g>
<g>
</g>
<g>
</g>
<g>
</g>
<g>
</g>
<g>
</g>
<g>
</g>
<g>
</g>
<g>
</g>
<g>
</g>
<g>
</g>
<g>
</g>
<g>
</g>
<g>
</g>
<g>
</g>
</svg>
