<?xml version="1.0" encoding="iso-8859-1"?>
<!-- Generator: Adobe Illustrator 19.0.0, SVG Export Plug-In . SVG Version: 6.00 Build 0)  -->
<svg version="1.1" id="Capa_1" xmlns="http://www.w3.org/2000/svg" xmlns:xlink="http://www.w3.org/1999/xlink" x="0px" y="0px"
	 viewBox="0 0 511.734 511.734" style="enable-background:new 0 0 511.734 511.734;" xml:space="preserve">
<path style="fill:#D7E9FF;" d="M338.863,461.681c1.039,4.318-1.602,8.637-5.91,9.675c-4.248,1.039-8.559-1.601-9.605-5.919
	c-1.031-4.317,1.609-8.55,5.842-9.674h0.078C333.507,454.803,337.824,457.442,338.863,461.681z"/>
<g>
	<path style="fill:#3A3847;" d="M323.629,444.48c-5.521,0-10.291-3.787-11.604-9.207c-1.545-6.441,2.428-12.946,8.871-14.508
		c6.441-1.515,12.867,2.53,14.414,8.855c1.553,6.457-2.42,12.961-8.855,14.523C325.52,444.363,324.566,444.48,323.629,444.48z
		 M323.676,428.433c-0.297,0-0.609,0.039-0.914,0.109c-2.146,0.523-3.475,2.701-2.959,4.857c0.516,2.123,2.623,3.506,4.779,2.967
		c2.186-0.531,3.482-2.663,2.959-4.857C327.111,429.738,325.48,428.433,323.676,428.433z"/>
	<path style="fill:#3A3847;" d="M292.543,451.914c-5.535,0-10.314-3.787-11.619-9.207c-0.748-3.131-0.242-6.355,1.43-9.089
		c1.672-2.732,4.311-4.653,7.441-5.411c6.684-1.554,12.877,2.601,14.414,8.855c1.547,6.426-2.271,12.79-8.691,14.492
		c-0.17,0.047-0.342,0.078-0.514,0.102C294.191,451.828,293.363,451.914,292.543,451.914z M292.488,435.898
		c-0.297,0-0.594,0.031-0.873,0.094c-2.109,0.508-3.438,2.687-2.914,4.842c0.508,2.123,2.656,3.459,4.756,2.975
		c0.078-0.023,0.164-0.039,0.25-0.055c2.037-0.672,3.232-2.732,2.732-4.803C296.003,437.187,294.348,435.898,292.488,435.898z"/>
</g>
<g>
	<path style="fill:#D7E9FF;" d="M307.762,469.115c1.039,4.318-1.6,8.637-5.918,9.675c-4.318,1.039-8.559-1.601-9.598-5.911
		c-1.037-4.325,1.602-8.636,5.92-9.682C302.484,462.244,306.717,464.884,307.762,469.115z"/>
	<path style="fill:#D7E9FF;" d="M331.43,430.565c1.039,4.318-1.602,8.636-5.91,9.675c-4.248,1.038-8.559-1.601-9.605-5.919
		c-1.031-4.318,1.609-8.558,5.842-9.675h0.076C326.072,423.686,330.391,426.325,331.43,430.565z"/>
	<path style="fill:#D7E9FF;" d="M300.328,437.999c1.039,4.318-1.6,8.636-5.918,9.675c-4.318,1.046-8.559-1.593-9.598-5.919
		c-1.037-4.311,1.602-8.636,5.92-9.667C295.051,431.12,299.281,433.759,300.328,437.999z"/>
</g>
<g>
	<path style="fill:#94C1FF;" d="M301.844,478.79c4.318-1.038,6.957-5.356,5.918-9.675c-1.045-4.231-5.277-6.871-9.596-5.918
		l31.023-7.434c-4.232,1.124-6.873,5.356-5.842,9.674c1.047,4.318,5.357,6.958,9.605,5.919L301.844,478.79z"/>
	<path style="fill:#94C1FF;" d="M315.914,434.337c1.047,4.311,5.279,6.949,9.598,5.919l-31.023,7.434
		c4.232-1.125,6.871-5.356,5.84-9.675c-1.047-4.24-5.355-6.879-9.604-5.919l31.107-7.441
		C317.516,425.701,314.875,430.018,315.914,434.337z"/>
	<path style="fill:#94C1FF;" d="M199.897,427.777c13.274,0,23.988,10.714,23.988,23.988c0,13.196-10.713,23.987-23.988,23.987
		s-23.988-10.791-23.988-23.987C175.91,438.491,186.623,427.777,199.897,427.777z"/>
</g>
<path style="fill:#D7E9FF;" d="M183.906,451.765c0-11.9,8.636-21.677,19.99-23.582c-1.308-0.219-2.627-0.406-3.998-0.406
	c-13.274,0-23.988,10.714-23.988,23.988c0,13.196,10.713,23.987,23.988,23.987c1.371,0,2.69-0.188,3.998-0.406
	C192.542,473.426,183.906,463.596,183.906,451.765z"/>
<g>
	<path style="fill:#5C9EFF;" d="M215.889,451.765c0-11.9-8.636-21.677-19.989-23.582c1.308-0.219,2.627-0.406,3.998-0.406
		c13.274,0,23.988,10.714,23.988,23.988c0,13.196-10.713,23.987-23.988,23.987c-1.371,0-2.69-0.188-3.998-0.406
		C207.253,473.426,215.889,463.596,215.889,451.765z"/>
	<path style="fill:#5C9EFF;" d="M294.488,447.689l31.023-7.434c4.316-1.047,6.957-5.356,5.918-9.683
		c-1.039-4.232-5.279-6.949-9.598-5.919l-31.107,7.441c-4.311,1.039-6.949,5.356-5.912,9.675c1.039,4.318,5.357,6.957,9.598,5.919
		h0.078V447.689z M329.189,455.763l-31.023,7.434c-4.318,1.046-6.957,5.356-5.92,9.682c1.039,4.311,5.279,6.95,9.598,5.911
		l31.109-7.434c4.309-1.038,6.949-5.356,5.91-9.675c-1.039-4.239-5.357-6.879-9.596-5.918L329.189,455.763L329.189,455.763z
		 M199.897,475.753c13.274,0,23.988-10.791,23.988-23.987c0-13.274-10.713-23.988-23.988-23.988s-23.988,10.714-23.988,23.988
		C175.91,464.962,186.623,475.753,199.897,475.753z M272.656,491.744h-33.581c-10.073,9.839-23.906,15.992-39.179,15.992
		c-30.945,0-55.971-25.112-55.971-55.971c0-30.945,25.026-55.971,55.971-55.971h51.973h59.968c30.945,0,55.971,25.025,55.971,55.971
		c0,30.858-25.025,55.971-55.971,55.971C296.564,507.736,282.728,501.583,272.656,491.744z"/>
</g>
<path style="fill:#94C1FF;" d="M151.922,451.765c0-30.945,25.026-55.971,55.971-55.971h-7.996
	c-30.945,0-55.971,25.025-55.971,55.971c0,30.858,25.026,55.971,55.971,55.971c1.355,0,2.682-0.109,4.013-0.203
	C174.836,505.487,151.922,481.289,151.922,451.765z"/>
<path style="fill:#2287FF;" d="M359.813,451.765c0-30.945-25.025-55.971-55.971-55.971h7.996c30.945,0,55.971,25.025,55.971,55.971
	c0,30.858-25.025,55.971-55.971,55.971c-1.357,0-2.686-0.109-4.014-0.203C336.902,505.487,359.813,481.289,359.813,451.765z"/>
<path style="fill:#94C1FF;" d="M423.779,171.911c0,92.732-75.18,167.912-167.912,167.912c-92.737,0-167.913-75.18-167.913-167.912
	c0-92.737,75.176-167.913,167.913-167.913C348.599,3.998,423.779,79.174,423.779,171.911z"/>
<g>
	<path style="fill:#D7E9FF;" d="M141.849,204.612c8.875,12.876,18.069,30.547,13.352,46.539
		c-1.999,6.875-6.477,12.474-11.833,17.031c-1.203,1.116-14.875,11.353-16.312,11.353c-24.39-29.105-39.101-66.605-39.101-107.623
		c0-11.596,1.199-22.867,3.439-33.745c9.035,4.958,28.704,36.864,33.74,43.899C130.574,189.581,136.571,197.018,141.849,204.612z"/>
	<path style="fill:#D7E9FF;" d="M342.861,128.972c-4.318,5.918,6.238,25.268,39.338,22.789c10.473-0.8-11.594,35.743-18.232,47.256
		c-8.309,14.231-6.152,31.261-13.992,45.496c-4.873,9.034-13.188,15.672-19.912,23.348c-8.23,9.674-17.506,18.951-31.256,17.748
		c-9.113-0.797-12.877-10.869-14.719-18.068c-4.389-17.831-2.555-36.38-7.512-54.292c-5.842-21.188-23.906-19.111-41.819-19.35
		c-21.508-0.238-34.939-13.993-35.661-35.341c-1.999-52.691,42.298-58.29,47.417-57.33c7.355,1.359,29.024,5.037,34.379,8.074
		c18.389,10.077,37.262-3.916,35.74-11.275c-1.438-7.434-47.094-18.069-63.323-19.268c-5.837-0.32-17.752,4.639-22.148-0.242
		c-3.518-3.916-0.242-10.232,2.237-13.512c17.912-23.585,47.658-29.184,72.927-41.498c0.717-0.32,7.191-3.596,8.635-8.797
		c44.453,16.714,79.959,51.735,97.223,95.872c-7.434,1.039-23.104,11.193-23.51,14.551
		C386.361,143.687,350.46,118.739,342.861,128.972z"/>
</g>
<g>
	<path style="fill:#FFFFFF;" d="M292.082,267.541c-4.387-17.831-2.553-36.38-7.512-54.292c-5.84-21.188-23.904-19.111-41.817-19.35
		c-21.509-0.238-34.939-13.993-35.661-35.341c-1.644-43.306,27.95-54.784,41.4-56.971c-0.684-0.125-1.441-0.258-1.979-0.359
		c-5.119-0.96-49.416,4.639-47.417,57.33c0.722,21.348,14.153,35.103,35.661,35.341c17.913,0.238,35.977-1.839,41.819,19.35
		c4.957,17.912,3.123,36.461,7.512,54.292c1.842,7.199,5.605,17.271,14.719,18.068c2.311,0.203,4.457,0.016,6.535-0.328
		C297.314,283.563,293.816,274.326,292.082,267.541z"/>
	<path style="fill:#FFFFFF;" d="M242.375,80.24c-1.257-0.324-2.397-0.812-3.217-1.722c-3.518-3.916-0.699-10.635,2.237-13.512
		c22.797-22.359,48.83-22.153,71.943-39.019c0.578-0.253,5.762-4.899,8.184-8.397c-2.203-0.941-4.311-2.034-6.561-2.878
		c-1.443,5.201-7.918,8.477-8.635,8.797c-25.27,12.313-55.015,17.912-72.927,41.498c-2.479,3.28-5.755,9.597-2.237,13.512
		C233.478,81.087,237.877,80.919,242.375,80.24z"/>
</g>
<path style="fill:#D7E9FF;" d="M111.943,171.911c0-88.688,68.805-161.135,155.919-167.308c-3.982-0.281-7.945-0.605-11.994-0.605
	c-92.737,0-167.913,75.176-167.913,167.913c0,92.732,75.176,167.912,167.913,167.912c4.048,0,8.011-0.319,11.994-0.608
	C180.747,333.046,111.943,260.596,111.943,171.911z"/>
<path style="fill:#FFFFFF;" d="M89.493,193.47c0.453,3.521,0.934,7.036,1.601,10.487c0.402,2.085,0.921,4.131,1.402,6.188
	c0.71,3.05,1.456,6.083,2.331,9.062c0.64,2.182,1.355,4.33,2.081,6.473c0.93,2.745,1.917,5.466,2.983,8.145
	c0.878,2.209,1.792,4.403,2.764,6.566c1.109,2.472,2.3,4.9,3.522,7.309c1.132,2.226,2.26,4.455,3.486,6.622
	c1.226,2.167,2.549,4.259,3.865,6.36c1.417,2.264,2.803,4.556,4.326,6.742c1.183,1.71,2.483,3.326,3.732,4.989
	c1.796,2.397,3.549,4.825,5.47,7.121c1.343,0,13.228-8.839,15.789-10.924c-19.373-27.337-30.902-60.621-30.902-96.699
	c0-2.979,0.273-5.888,0.426-8.828c-7.344-10.674-15.859-22.109-20.974-24.917c-2.241,10.877-3.439,22.149-3.439,33.745
	c0,5.485,0.305,10.896,0.82,16.249C88.947,189.948,89.264,191.697,89.493,193.47z"/>
<path style="fill:#5C9EFF;" d="M399.793,171.911c0-88.688-68.809-161.135-155.919-167.308c3.979-0.281,7.945-0.605,11.994-0.605
	c92.732,0,167.912,75.176,167.912,167.913c0,92.732-75.18,167.912-167.912,167.912c-4.049,0-8.016-0.319-11.994-0.608
	C330.984,333.046,399.793,260.596,399.793,171.911z"/>
<path style="fill:#94C1FF;" d="M391.891,121.261c5.014-4.259,14.719-9.834,20.176-10.651c-0.186-0.472-0.326-0.964-0.521-1.437
	c-1.5-3.732-3.211-7.355-4.975-10.951c-0.766-1.565-1.453-3.178-2.264-4.716c-1.969-3.717-4.154-7.293-6.389-10.838
	c-0.789-1.257-1.482-2.581-2.311-3.814c-6.293-9.433-13.51-18.193-21.535-26.15c-1.016-1.007-2.133-1.909-3.172-2.889
	c-3.045-2.874-6.137-5.704-9.385-8.344c-1.5-1.214-3.1-2.304-4.639-3.467c-2.959-2.233-5.934-4.451-9.041-6.493
	c-1.758-1.152-3.592-2.19-5.396-3.28c-3.053-1.839-6.113-3.646-9.285-5.29c-1.943-1.011-3.941-1.925-5.934-2.858
	c-3.17-1.496-6.371-2.932-9.65-4.228c-0.883-0.352-1.789-0.648-2.68-0.98c-1.1,3.658-4.629,6.325-6.832,7.668
	C347.727,42.767,378.249,78.209,391.891,121.261z"/>
<g>
	<path style="fill:#116FFF;" d="M255.868,343.821c-2.21,0-3.998-1.788-3.998-3.998s1.788-3.997,3.998-3.997
		c90.382,0,163.914-73.533,163.914-163.915c0-20.716-3.811-40.858-11.314-59.86c-16.889-43.157-51.48-77.268-94.91-93.6
		c-18.366-6.938-37.77-10.455-57.69-10.455c-77.589,0-145.112,55.081-160.558,130.967c-2.229,10.823-3.357,21.907-3.357,32.948
		c0,38.374,13.556,75.683,38.168,105.055c22.535,27.095,52.52,45.819,86.716,54.183c2.143,0.523,3.459,2.686,2.936,4.833
		c-0.527,2.14-2.706,3.452-4.833,2.929c-35.872-8.762-67.325-28.415-90.957-56.822c-25.807-30.792-40.026-69.929-40.026-110.177
		c0-11.584,1.183-23.207,3.521-34.553C103.678,57.771,174.496,0,255.868,0c20.894,0,41.244,3.689,60.5,10.971
		c45.555,17.124,81.832,52.902,99.541,98.156c7.871,19.927,11.869,41.057,11.869,62.784
		C427.777,266.705,350.663,343.821,255.868,343.821z"/>
	<path style="fill:#116FFF;" d="M301.227,289.717c-0.898,0-1.828-0.039-2.771-0.125c-8.73-0.766-14.867-7.848-18.24-21.06
		c-2.188-8.894-2.891-17.916-3.561-26.642c-0.75-9.569-1.453-18.612-3.936-27.576c-4.279-15.555-15.371-16.362-33.113-16.39
		l-4.903-0.027c-23.258-0.258-38.804-15.648-39.601-39.202c-1.003-26.4,9.405-41.104,18.314-48.787
		c12.861-11.096,29.188-13.509,33.834-12.607l2.718,0.492c13.309,2.409,27.926,5.212,32.901,8.031
		c9.885,5.423,19.928,2.581,25.51-1.488c3.568-2.616,4.443-4.982,4.342-5.501c-3.311-4.693-42.064-14.785-59.704-16.089
		c-1.456-0.039-3.873,0.379-6.274,0.812c-6.274,1.14-14.106,2.572-18.553-2.366c-4.822-5.368-2.116-13.126,2.018-18.596
		c13.716-18.057,33.858-26.029,53.333-33.74c7.02-2.78,14.289-5.657,21.027-8.945c1.805-0.824,5.756-3.459,6.535-6.266
		c0.594-2.132,2.812-3.369,4.92-2.788c2.123,0.589,3.373,2.792,2.787,4.919c-2.045,7.379-10.502,11.221-10.861,11.381
		c-6.902,3.365-14.305,6.297-21.473,9.132c-19.303,7.645-37.535,14.859-49.896,31.132c-2.214,2.933-3.826,6.883-2.444,8.426
		c1.441,1.608,7.547,0.503,11.182-0.156c2.987-0.547,5.813-1.07,8.211-0.922c8.776,0.645,64.618,10.05,67.032,22.497
		c0.898,4.333-1.852,9.374-7.348,13.438c-7.48,5.528-20.943,9.397-34.24,2.104c-4.256-2.413-23.269-5.853-30.43-7.148l-2.756-0.5
		c-1.612-0.211-15.847,0.688-27.724,11.311c-10.627,9.507-15.668,23.617-14.973,41.936c0.66,19.517,12.517,31.284,31.71,31.495
		l4.817,0.027c16.266,0.027,34.693,0.055,40.816,22.258c2.686,9.702,3.451,19.557,4.184,29.087
		c0.688,8.788,1.328,17.093,3.357,25.307c2.469,9.675,6.123,14.602,11.184,15.047c11.883,0.953,20.332-7.504,27.859-16.358
		c2.188-2.487,4.482-4.829,6.777-7.176c4.92-5.013,9.574-9.753,12.666-15.477c3.537-6.43,4.889-13.54,6.309-21.071
		c1.547-8.199,3.154-16.675,7.746-24.546l1.703-2.928c14.258-24.487,18.271-34.412,18.748-38.223
		c-22.668,1.257-36.014-7.453-40.877-16.202c-2.703-4.849-2.875-9.722-0.453-13.032c5.012-6.747,15.539-3.936,25.721-1.207
		c6.73,1.804,15.102,4.044,18.029,2.057c0.289-0.195,1.055-0.71,1.32-2.826c0.797-6.591,19.809-17.022,26.924-18.014
		c2.209,0,4.316,1.769,4.316,3.978c0,2.206-1.475,3.979-3.678,3.979c-5.73,0.828-18.365,9.206-19.816,11.74
		c-0.281,3.107-1.891,5.958-4.6,7.777c-5.959,4.014-14.984,1.593-24.559-0.969c-6.16-1.651-15.459-4.142-17.225-1.776
		c-0.203,0.281-0.391,1.905,1,4.408c3.607,6.477,14.891,13.509,34.832,12.013c2.562-0.207,4.748,0.828,5.99,2.811
		c3.443,5.497-1.289,17.487-18.756,47.507l-1.703,2.92c-3.912,6.7-5.324,14.142-6.809,22.02c-1.482,7.812-3.006,15.89-7.145,23.41
		c-3.615,6.692-8.879,12.06-13.977,17.253c-2.195,2.236-4.389,4.471-6.428,6.797C325.121,279.839,315.461,289.717,301.227,289.717z"
		/>
	<path style="fill:#116FFF;" d="M127.056,283.532c-2.209,0-4.037-1.788-4.037-3.998c0-1.921,1.324-3.529,3.124-3.911
		c2.545-1.32,13.196-9.207,14.52-10.386c5.575-4.747,9.136-9.827,10.701-15.203c3.37-11.424-0.94-25.939-12.806-43.153
		c-2.998-4.311-6.239-8.585-9.476-12.849c-2.432-3.206-4.86-6.407-7.188-9.624c-1.054-1.472-2.713-3.975-4.771-7.082
		c-6.922-10.444-21.321-32.179-27.654-35.653c-1.933-1.062-2.643-3.495-1.581-5.431c1.062-1.929,3.486-2.636,5.431-1.582
		c7.438,4.083,19.131,21.133,30.469,38.25c1.987,3.002,3.592,5.423,4.599,6.829c2.28,3.151,4.669,6.301,7.067,9.46
		c3.303,4.353,6.609,8.718,9.679,13.134c13.309,19.31,17.982,36.11,13.902,49.951c-2.003,6.887-6.402,13.267-13.079,18.943
		C145.956,271.234,130.863,283.532,127.056,283.532z"/>
	<path style="fill:#116FFF;" d="M311.839,399.792H199.897c-2.209,0-3.998-1.788-3.998-3.997c0-2.21,1.788-3.998,3.998-3.998h111.941
		c2.211,0,3.998,1.788,3.998,3.998C315.836,398.004,314.049,399.792,311.839,399.792z"/>
	<path style="fill:#116FFF;" d="M272.656,495.742h-33.581c-2.21,0-3.998-1.788-3.998-3.998c0-2.209,1.788-3.998,3.998-3.998h33.581
		c2.217,0,3.998,1.789,3.998,3.998C276.654,493.954,274.874,495.742,272.656,495.742z"/>
	<path style="fill:#116FFF;" d="M199.897,511.734c-33.069,0-59.969-26.9-59.969-59.969s26.9-59.969,59.969-59.969
		c2.209,0,3.998,1.788,3.998,3.998c0,2.209-1.789,3.997-3.998,3.997c-28.657,0-51.973,23.316-51.973,51.974
		c0,28.656,23.316,51.973,51.973,51.973c13.735,0,26.65-5.271,36.375-14.844c1.569-1.554,4.096-1.53,5.653,0.047
		c1.546,1.569,1.526,4.1-0.047,5.653C230.655,505.643,215.744,511.734,199.897,511.734z"/>
	<path style="fill:#116FFF;" d="M311.839,511.734c-15.852,0-30.758-6.091-41.979-17.14c-1.576-1.554-1.592-4.084-0.047-5.653
		c1.547-1.577,4.076-1.601,5.654-0.047c9.721,9.573,22.637,14.844,36.371,14.844c28.658,0,51.973-23.316,51.973-51.973
		c0-28.657-23.314-51.974-51.973-51.974c-2.209,0-3.998-1.788-3.998-3.997c0-2.21,1.789-3.998,3.998-3.998
		c33.068,0,59.969,26.899,59.969,59.969C371.806,484.834,344.906,511.734,311.839,511.734z"/>
	<path style="fill:#116FFF;" d="M199.897,479.751c-15.429,0-27.985-12.556-27.985-27.985s12.556-27.986,27.985-27.986
		s27.985,12.557,27.985,27.986S215.326,479.751,199.897,479.751z M199.897,431.775c-11.022,0-19.99,8.965-19.99,19.99
		s8.968,19.989,19.99,19.989s19.99-8.964,19.99-19.989S210.919,431.775,199.897,431.775z"/>
	<path style="fill:#116FFF;" d="M199.897,463.759c-2.209,0-3.998-1.788-3.998-3.997V443.77c0-2.21,1.788-3.998,3.998-3.998
		s3.998,1.788,3.998,3.998v15.992C203.895,461.971,202.107,463.759,199.897,463.759z"/>
	<path style="fill:#116FFF;" d="M207.893,455.763h-16.39c-2.21,0-3.998-1.789-3.998-3.998c0-2.21,1.788-3.998,3.998-3.998h16.39
		c2.21,0,3.998,1.788,3.998,3.998C211.891,453.974,210.103,455.763,207.893,455.763z"/>
	<path style="fill:#116FFF;" d="M292.543,451.914c-5.535,0-10.314-3.787-11.619-9.207c-1.537-6.402,2.445-12.876,8.871-14.422
		c6.191-1.507,12.893,2.522,14.422,8.871c0.75,3.131,0.234,6.348-1.443,9.065c-1.664,2.701-4.311,4.606-7.434,5.356
		C294.434,451.797,293.488,451.914,292.543,451.914z M292.598,435.945c-0.312,0-0.617,0.039-0.92,0.109
		c-2.195,0.531-3.5,2.632-2.977,4.779c0.508,2.123,2.656,3.459,4.756,2.975c1.078-0.258,1.969-0.898,2.514-1.788
		c0.547-0.891,0.719-1.952,0.469-2.991C296.003,437.211,294.426,435.945,292.598,435.945z"/>
	<path style="fill:#116FFF;" d="M323.613,444.472c-5.514,0-10.275-3.779-11.588-9.199c-0.75-3.068-0.25-6.262,1.406-8.987
		c1.678-2.748,4.326-4.677,7.465-5.435c6.355-1.491,12.883,2.522,14.414,8.871c0.758,3.061,0.266,6.254-1.398,8.979
		c-1.678,2.748-4.326,4.677-7.473,5.435C325.52,444.363,324.566,444.472,323.613,444.472z M323.723,428.512
		c-0.312,0-0.641,0.039-0.953,0.117c-1.061,0.25-1.951,0.898-2.506,1.819c-0.547,0.89-0.711,1.937-0.461,2.937
		c0.516,2.146,2.639,3.506,4.764,2.975c1.061-0.25,1.951-0.898,2.514-1.819c0.547-0.891,0.711-1.929,0.469-2.929
		C327.103,429.785,325.535,428.512,323.723,428.512z"/>
	<path style="fill:#116FFF;" d="M299.953,483.014c-5.512,0-10.283-3.787-11.588-9.206c-0.756-3.061-0.266-6.255,1.398-8.979
		c1.68-2.749,4.326-4.678,7.473-5.435c6.262-1.547,12.877,2.506,14.414,8.862c0.75,3.068,0.25,6.263-1.404,8.987
		c-1.68,2.749-4.326,4.678-7.465,5.435C301.844,482.897,300.898,483.014,299.953,483.014z M300.063,467.055
		c-0.312,0-0.641,0.039-0.951,0.117c-1.062,0.249-1.953,0.897-2.516,1.818c-0.547,0.891-0.711,1.93-0.469,2.929
		c0.523,2.147,2.625,3.506,4.779,2.982c1.062-0.249,1.953-0.897,2.506-1.819c0.547-0.89,0.711-1.937,0.461-2.936
		C303.435,468.319,301.875,467.055,300.063,467.055z"/>
	<path style="fill:#116FFF;" d="M331.078,475.581c-5.529,0-10.307-3.787-11.619-9.206c-0.75-3.131-0.234-6.349,1.445-9.065
		c1.662-2.702,4.311-4.607,7.434-5.356c6.207-1.508,12.891,2.521,14.414,8.87c1.539,6.403-2.443,12.876-8.871,14.422
		C332.977,475.464,332.031,475.581,331.078,475.581z M331.133,459.613c-0.305,0-0.609,0.039-0.914,0.109
		c-1.076,0.257-1.967,0.897-2.514,1.787c-0.547,0.891-0.719,1.953-0.469,2.991c0.516,2.124,2.67,3.467,4.764,2.975
		c2.193-0.53,3.498-2.631,2.975-4.778C334.546,460.878,332.961,459.613,331.133,459.613z"/>
	<path style="fill:#116FFF;" d="M290.724,436.172c-1.812,0-3.451-1.233-3.889-3.068c-0.508-2.147,0.812-4.303,2.967-4.818
		l31.102-7.434c2.146-0.516,4.303,0.812,4.816,2.959c0.516,2.148-0.811,4.303-2.959,4.818l-31.1,7.434
		C291.349,436.14,291.038,436.172,290.724,436.172z"/>
	<path style="fill:#116FFF;" d="M294.402,451.687c-1.805,0-3.443-1.234-3.881-3.069c-0.516-2.147,0.812-4.302,2.951-4.817
		l31.109-7.441c2.162-0.516,4.303,0.812,4.816,2.959c0.508,2.147-0.811,4.303-2.959,4.818l-31.107,7.441
		C295.02,451.656,294.707,451.687,294.402,451.687z"/>
	<path style="fill:#116FFF;" d="M298.158,467.281c-1.805,0-3.436-1.234-3.881-3.069c-0.508-2.147,0.812-4.303,2.959-4.817
		l31.109-7.441c2.154-0.523,4.295,0.812,4.809,2.959c0.516,2.147-0.811,4.303-2.951,4.818l-31.107,7.441
		C298.783,467.25,298.471,467.281,298.158,467.281z"/>
	<path style="fill:#116FFF;" d="M301.844,482.788c-1.812,0-3.451-1.233-3.889-3.068c-0.516-2.147,0.812-4.303,2.959-4.818
		l31.102-7.434c2.154-0.53,4.311,0.812,4.824,2.96c0.508,2.146-0.811,4.303-2.967,4.817l-31.1,7.434
		C302.461,482.757,302.148,482.788,301.844,482.788z"/>
	<path style="fill:#116FFF;" d="M247.872,471.755h-7.996c-2.209,0-3.998-1.788-3.998-3.998s1.789-3.998,3.998-3.998h7.996
		c2.21,0,3.998,1.788,3.998,3.998S250.082,471.755,247.872,471.755z"/>
	<path style="fill:#116FFF;" d="M271.859,471.755h-7.996c-2.209,0-3.998-1.788-3.998-3.998s1.789-3.998,3.998-3.998h7.996
		c2.209,0,3.998,1.788,3.998,3.998S274.068,471.755,271.859,471.755z"/>
	<path style="fill:#116FFF;" d="M255.868,391.797c-2.21,0-3.998-1.789-3.998-3.998c0-6.614-5.38-11.994-11.994-11.994
		c-2.209,0-3.998-1.788-3.998-3.998c0-2.209,1.789-3.998,3.998-3.998c11.021,0,19.99,8.965,19.99,19.99
		C259.865,390.008,258.077,391.797,255.868,391.797z"/>
	<path style="fill:#116FFF;" d="M239.876,375.805c-11.021,0-19.989-8.964-19.989-19.989c0-4.686,1.589-9.073,4.599-12.704
		c3.803-4.623,9.417-7.285,15.39-7.285c2.21,0,3.998,1.787,3.998,3.997s-1.788,3.998-3.998,3.998c-3.572,0-6.938,1.601-9.226,4.381
		c-1.815,2.187-2.768,4.817-2.768,7.613c0,6.613,5.38,11.993,11.994,11.993c2.21,0,3.998,1.789,3.998,3.998
		C243.874,374.016,242.086,375.805,239.876,375.805z"/>
	<path style="fill:#116FFF;" d="M255.868,343.821h-15.992c-2.209,0-3.998-1.788-3.998-3.998s1.789-3.997,3.998-3.997h15.992
		c2.208,0,3.998,1.787,3.998,3.997S258.077,343.821,255.868,343.821z"/>
</g>
<g>
</g>
<g>
</g>
<g>
</g>
<g>
</g>
<g>
</g>
<g>
</g>
<g>
</g>
<g>
</g>
<g>
</g>
<g>
</g>
<g>
</g>
<g>
</g>
<g>
</g>
<g>
</g>
<g>
</g>
</svg>
