<?xml version="1.0"?>
<svg xmlns="http://www.w3.org/2000/svg" xmlns:xlink="http://www.w3.org/1999/xlink" version="1.1" id="Capa_1" x="0px" y="0px" viewBox="0 0 512 512" style="enable-background:new 0 0 512 512;" xml:space="preserve" width="512px" height="512px" class=""><g><path style="fill:#4B494B" d="M456.25,10h-40v492h40c11.05,0,20-8.95,20-20V30C476.25,18.95,467.3,10,456.25,10z" data-original="#CA80DC" class="" data-old_color="#4C4A4C"/><path style="fill:#D4D4D4" d="M416.25,10c-15.731,0-344.026,0-360,0c-11.05,0-20,8.95-20,20v452c0,11.05,8.95,20,20,20  c4.698,0,353.975,0,360,0c11.05,0,20-8.95,20-20V30C436.25,18.95,427.3,10,416.25,10z" data-original="#EDECFF" class="" data-old_color="#D6D5D5"/><path style="fill:#57555C;" d="M276.25,196c33.14,0,60,26.86,60,60s-26.86,60-60,60c-15.78,0-30.02-6.22-40.73-16.17  c0.73,56.17,39.79,94.77,40.73,96.17c-4.04,0-117.49,0-120,0c0.84-1.25,40-40,39.99-95.56c-10.63,9.57-24.56,15.56-39.99,15.56  c-33.14,0-60-26.86-60-60s26.86-60,60-60c1.3,0,2.51,0.3,3.79,0.38c-2.32-6.39-3.79-13.19-3.79-20.38c0-33.14,26.86-60,60-60  s60,26.86,60,60c0,7.19-1.47,13.99-3.79,20.38C273.74,196.3,274.95,196,276.25,196z" data-original="#57555C"/><path d="M356,469c5.52,0,10-4.48,10-10s-4.48-10-10-10s-10,4.48-10,10S350.48,469,356,469z" data-original="#000000" class="active-path" style="fill:#000000"/><path d="M76,63c5.52,0,10-4.48,10-10s-4.48-10-10-10s-10,4.48-10,10S70.48,63,76,63z" data-original="#000000" class="active-path" style="fill:#000000"/><path d="M56,512c69.336,0,307.708,0,400,0c16.542,0,30-13.458,30-30V30c0-16.542-13.458-30-30-30C368.868,0,131.275,0,56,0  C39.458,0,26,13.458,26,30v452C26,498.542,39.458,512,56,512z M404.28,20H416c5.514,0,10,4.486,10,10v452c0,5.514-4.486,10-10,10  h-11.72c1.11-3.13,1.72-6.494,1.72-10V30C406,26.494,405.39,23.13,404.28,20z M466,30v452c0,5.514-4.486,10-10,10h-11.72  c1.11-3.13,1.72-6.494,1.72-10V30c0-3.506-0.61-6.87-1.72-10H456C461.514,20,466,24.486,466,30z M46,30c0-5.514,4.486-10,10-10h300  h20c5.514,0,10,4.486,10,10v452c0,5.514-4.486,10-10,10c-6.368,0-303.113,0-320,0c-5.514,0-10-4.486-10-10V30z" data-original="#000000" class="active-path" style="fill:#000000"/><path d="M116,63h60c5.522,0,10-4.477,10-10s-4.478-10-10-10h-60c-5.522,0-10,4.477-10,10S110.478,63,116,63z" data-original="#000000" class="active-path" style="fill:#000000"/><path d="M316,449h-60c-5.522,0-10,4.477-10,10s4.478,10,10,10h60c5.522,0,10-4.477,10-10S321.522,449,316,449z" data-original="#000000" class="active-path" style="fill:#000000"/><path d="M156,326c9.785,0,19.395-2.104,28.257-6.09c-5.939,33.392-25.622,58.318-34.916,68.527c-0.755,0.83-1.171,1.287-1.642,1.987  c-2.06,3.066-2.262,7.019-0.524,10.279S152.306,406,156,406h120h0.11c5.522,0,10-4.477,10-10c0-2.956-1.29-5.604-3.329-7.435  c-0.067-0.073-0.121-0.134-0.193-0.214c-9.264-10.218-28.886-35.123-35.272-68.592C256.275,323.845,266.026,326,276,326  c38.598,0,70-31.402,70-70c0-35.512-26.58-64.932-60.891-69.41c0.593-3.565,0.891-7.102,0.891-10.59c0-38.598-31.402-70-70-70  s-70,31.402-70,70c0,3.488,0.298,7.025,0.891,10.59C112.58,191.068,86,220.488,86,256C86,294.598,117.402,326,156,326z M155.961,206  c0.141,0.006,0.555,0.063,0.856,0.105c0.638,0.088,1.431,0.198,2.349,0.255c3.364,0.215,6.61-1.289,8.63-3.989  c2.021-2.7,2.545-6.235,1.394-9.405C167.043,187.057,166,181.507,166,176c0-27.57,22.43-50,50-50s50,22.43,50,50  c0,5.507-1.043,11.057-3.189,16.967c-1.151,3.169-0.627,6.705,1.394,9.405c2.02,2.699,5.251,4.199,8.63,3.989  c0.918-0.057,1.711-0.167,2.349-0.255c0.294-0.041,0.692-0.096,0.844-0.105C303.585,206.014,326,228.438,326,256  c0,27.57-22.43,50-50,50c-12.507,0-24.556-4.793-33.925-13.497c-2.931-2.723-7.202-3.437-10.861-1.814  c-3.657,1.623-5.995,5.27-5.943,9.271c0.481,37.006,16.449,67.163,29.861,86.04h-78.251c13.364-18.839,29.116-48.838,29.109-85.562  c-0.001-3.949-2.325-7.528-5.934-9.134c-3.605-1.605-7.822-0.938-10.757,1.704C179.993,301.386,168.167,306,156,306  c-27.57,0-50-22.43-50-50S128.43,206,155.961,206z" data-original="#000000" class="active-path" style="fill:#000000"/></g> </svg>
